<svg width="23" height="17" viewBox="0 0 23 17" fill="none" xmlns="http://www.w3.org/2000/svg">
<path d="M22.6086 2.36317L8.45893 16.5128C8.33569 16.6365 8.18925 16.7346 8.02801 16.8016C7.86677 16.8685 7.69389 16.903 7.5193 16.903C7.34471 16.903 7.17184 16.8685 7.0106 16.8016C6.84936 16.7346 6.70292 16.6365 6.57968 16.5128L0.389206 10.3223C0.265812 10.199 0.167931 10.0525 0.101151 9.89124C0.0343712 9.73002 1.8387e-09 9.55723 0 9.38272C-1.8387e-09 9.20822 0.0343712 9.03542 0.101151 8.8742C0.167931 8.71298 0.265812 8.56649 0.389206 8.4431C0.512599 8.31971 0.659088 8.22182 0.820309 8.15504C0.98153 8.08826 1.15433 8.05389 1.32883 8.05389C1.50334 8.05389 1.67613 8.08826 1.83735 8.15504C1.99857 8.22182 2.14506 8.31971 2.26846 8.4431L7.52041 13.6951L20.7315 0.486129C20.9807 0.236925 21.3187 0.0969238 21.6712 0.0969238C22.0236 0.0969238 22.3616 0.236925 22.6108 0.486129C22.86 0.735333 23 1.07333 23 1.42575C23 1.77818 22.86 2.11618 22.6108 2.36538L22.6086 2.36317Z" fill="#1AFFB3"/>
</svg>
